<?xml version="1.0" encoding="utf-8"?>
<svg xmlns="http://www.w3.org/2000/svg">
<symbol id="close" viewBox="0 0 24 24"><path fill-rule="evenodd" clip-rule="evenodd" d="M22 12c0 5.523-4.477 10-10 10S2 17.523 2 12 6.477 2 12 2s10 4.477 10 10zm-2 0a8 8 0 1 1-16 0 8 8 0 0 1 16 0zM7.756 9.167a1 1 0 1 1 1.415-1.414L12 10.585l2.828-2.828a1 1 0 1 1 1.414 1.414L13.415 12l2.828 2.83a1 1 0 1 1-1.415 1.414L12 13.414l-2.83 2.83a1 1 0 0 1-1.414-1.414l2.83-2.83-2.83-2.833z" fill="currentColor"/>
</symbol>
<symbol id="copy" viewBox="0 0 24 24">

<g clip-path="url(#a)">

<path fill-rule="evenodd" clip-rule="evenodd" d="M8 5h7.795c1.115 0 1.519.116 1.926.334.407.218.727.538.945.945.218.407.334.811.334 1.926V16a1 1 0 1 0 2 0V8.128c0-1.783-.186-2.43-.534-3.082a3.635 3.635 0 0 0-1.512-1.512C18.302 3.186 17.655 3 15.872 3H8a1 1 0 0 0 0 2zM6.205 7c-.882 0-1.393.049-1.926.334a2.272 2.272 0 0 0-.945.945C3.049 8.812 3 9.323 3 10.205v7.59c0 .882.049 1.392.334 1.926.218.407.538.727.945.945.533.285 1.044.334 1.926.334h7.59c.882 0 1.393-.049 1.926-.334.407-.218.727-.538.945-.945.285-.534.334-1.044.334-1.926v-7.59c0-.882-.049-1.393-.334-1.926a2.272 2.272 0 0 0-.945-.945C15.187 7.049 14.677 7 13.795 7h-7.59zm-.983 2.098a.52.52 0 0 1 .197-.062c.138-.021.363-.036.786-.036h7.59c.423 0 .648.015.786.036a.52.52 0 0 1 .197.062.275.275 0 0 1 .124.124.52.52 0 0 1 .062.197c.021.138.036.363.036.786v7.59c0 .423-.015.648-.036.786a.52.52 0 0 1-.062.197.275.275 0 0 1-.124.125.52.52 0 0 1-.197.06c-.138.022-.363.037-.786.037h-7.59c-.423 0-.648-.015-.786-.036a.52.52 0 0 1-.197-.061.275.275 0 0 1-.124-.125.52.52 0 0 1-.062-.197c-.021-.138-.036-.363-.036-.786v-7.59c0-.423.015-.648.036-.786a.52.52 0 0 1 .062-.197.275.275 0 0 1 .124-.124z" fill="currentColor"/>

</g>

<defs>

<clipPath id="a">

<path fill="currentColor" d="M0 0h24v24H0z"/>

</clipPath>

</defs>


</symbol>
<symbol id="download" viewBox="0 0 24 24"><path fill-rule="evenodd" clip-rule="evenodd" d="M12 2c-.55 0-1 .45-1 1v8.922a10 10 0 0 0 .254 2.24l-.206.206-.215-.344c-.4-.64-.873-1.234-1.407-1.768l-.966-.966a.996.996 0 0 0-1.41 0c-.39.39-.39 1.03 0 1.42l3.89 3.883a1.5 1.5 0 0 0 2.12 0l3.89-3.883c.39-.39.39-1.03 0-1.42a.996.996 0 0 0-1.41 0l-.966.966a10.004 10.004 0 0 0-1.407 1.768l-.215.344-.206-.207a10 10 0 0 0 .254-2.24V3c0-.55-.45-1-1-1zM6 20a1 1 0 1 0 0 2h12a1 1 0 1 0 0-2H6z" fill="currentColor"/>
</symbol>
<symbol id="edit" viewBox="0 0 24 24"><path d="m14.793 7.368-8.36 8.36a2 2 0 0 0-.425.625L4.28 19.52l3.365-1.53c.233-.101.445-.245.624-.424l8.36-8.362a5.085 5.085 0 0 0-.813-1.024 5.086 5.086 0 0 0-1.023-.812zm1.446-1.446c.335.237.665.519.99.844.327.326.609.657.846.992l1.47-1.471a.5.5 0 0 0 .11-.542c-.106-.262-.297-.537-.582-.822-.284-.284-.559-.475-.822-.582a.5.5 0 0 0-.541.11l-1.471 1.471zM4.17 15.564a4 4 0 0 1 .848-1.25L16.296 3.036a2.5 2.5 0 0 1 2.708-.549c.525.214 1.02.557 1.484 1.021.464.465.807.959 1.02 1.484a2.5 2.5 0 0 1-.548 2.708L9.683 18.98a4 4 0 0 1-1.249.847l-3.442 1.48a1.75 1.75 0 0 1-2.3-2.298l1.478-3.445z" fill="currentColor"/>
</symbol>
<symbol id="eye" viewBox="0 0 24 24"><path fill-rule="evenodd" clip-rule="evenodd" d="M12 4.5C5.25 4.5 1.5 9.75 1.5 12s3.75 7.5 10.5 7.5 10.5-5.25 10.5-7.5S18.75 4.5 12 4.5zM5.552 15.103C4.282 13.966 3.5 12.583 3.5 12c0-.584.781-1.966 2.052-3.103C7.231 7.395 9.438 6.5 12 6.5c2.562 0 4.77.895 6.448 2.397 1.27 1.137 2.052 2.52 2.052 3.103 0 .584-.781 1.966-2.052 3.103C16.769 16.605 14.562 17.5 12 17.5c-2.562 0-4.77-.895-6.448-2.397zM12 16a4 4 0 1 1 0-8 4 4 0 0 1 0 8zm2-4a2 2 0 1 1-4 0 2 2 0 0 1 4 0z" fill="currentColor"/>
</symbol>
<symbol id="eyeoff" viewBox="0 0 24 24"><path fill-rule="evenodd" clip-rule="evenodd" d="M20.707 20.707a1 1 0 0 0 0-1.414l-16-16a1 1 0 0 0-1.414 1.414L5.205 6.62C2.785 8.338 1.5 10.683 1.5 12c0 2.25 3.75 7.5 10.5 7.5 1.916 0 3.59-.423 5.006-1.08l2.287 2.287a1 1 0 0 0 1.414 0zm-5.228-3.814-1.774-1.774A4 4 0 0 1 8.38 9.794L6.644 8.058a9.332 9.332 0 0 0-1.09.84C4.28 10.034 3.5 11.417 3.5 12c0 .584.781 1.966 2.052 3.103C7.231 16.605 9.438 17.5 12 17.5c1.25 0 2.417-.213 3.48-.607zm4.841-.815C21.751 14.61 22.5 13.006 22.5 12c0-2.25-3.75-7.5-10.5-7.5-1.043 0-2.015.125-2.912.346l1.721 1.72c.388-.043.785-.066 1.191-.066 2.562 0 4.77.895 6.448 2.397 1.27 1.137 2.052 2.52 2.052 3.103 0 .51-.596 1.63-1.595 2.663l1.415 1.415z" fill="currentColor"/>
</symbol>
<symbol id="locked" viewBox="0 0 24 24"><path fill-rule="evenodd" clip-rule="evenodd" d="M12 3a5 5 0 0 1 5 5v2.001c.961.014 1.34.129 1.721.333.407.218.727.537.945.945.218.407.334.812.334 1.926v4.59c0 1.114-.116 1.519-.334 1.926a2.272 2.272 0 0 1-.945.945c-.407.218-.811.334-1.926.334h-9.59c-1.115 0-1.519-.116-1.926-.334a2.272 2.272 0 0 1-.945-.945C4.116 19.314 4 18.91 4 17.795v-4.59c0-1.114.116-1.519.334-1.926.218-.408.538-.727.945-.945.381-.204.76-.319 1.721-.333V8a5 5 0 0 1 5-5zm-5.644 9.049c.155-.03.422-.049.849-.049h9.59c.427 0 .694.019.849.049.06.012.074.017.134.049a.275.275 0 0 1 .125.124c.031.06.036.073.048.134.03.155.049.422.049.849v4.59c0 .427-.019.694-.049.849a.353.353 0 0 1-.049.134.275.275 0 0 1-.124.125.353.353 0 0 1-.134.048c-.155.03-.422.049-.849.049h-9.59c-.427 0-.694-.019-.849-.049a.353.353 0 0 1-.134-.049.275.275 0 0 1-.124-.124.353.353 0 0 1-.049-.134c-.03-.155-.049-.422-.049-.849v-4.59c0-.427.019-.694.049-.849a.353.353 0 0 1 .049-.134.275.275 0 0 1 .124-.124.353.353 0 0 1 .134-.049zM15 8v2H9V8a3 3 0 1 1 6 0z" fill="currentColor"/>
</symbol>
<symbol id="pluscircle" viewBox="0 0 24 24"><path fill-rule="evenodd" clip-rule="evenodd" d="M22 12c0 5.523-4.477 10-10 10S2 17.523 2 12 6.477 2 12 2s10 4.477 10 10zm-2 0a8 8 0 1 1-16 0 8 8 0 0 1 16 0zM7 13a1 1 0 1 1 0-2h4V7a1 1 0 1 1 2 0v4l4 .002a1 1 0 0 1 0 2L13 13V17a1 1 0 1 1-2 0v-4H7z" fill="currentColor"/>
</symbol>
<symbol id="refresh" viewBox="0 0 24 24"><path fill-rule="evenodd" clip-rule="evenodd" d="M12 2.181a.75.75 0 0 1 1.177-.616l4.432 3.068a.75.75 0 0 1 0 1.234l-4.432 3.068A.75.75 0 0 1 12 8.32V6a7 7 0 1 0 7 7 1 1 0 1 1 2 0 9 9 0 1 1-9-9V2.181z" fill="currentColor"/>
</symbol>
<symbol id="shield" viewBox="0 0 24 24"><path fill-rule="evenodd" clip-rule="evenodd" d="M6.87 18.66C8.581 20.637 10.851 22 12 22c1.148 0 3.418-1.362 5.13-3.34C19.56 15.854 21 11.967 21 7a1 1 0 0 0-.629-.929c-3.273-1.31-5.88-2.613-7.816-3.903a1 1 0 0 0-1.11 0C9.51 3.458 6.903 4.762 3.63 6.07A1 1 0 0 0 3 7c0 4.968 1.44 8.855 3.87 11.66zM12 20c-.469 0-2.25-1.068-3.62-2.65-2.006-2.317-3.25-5.52-3.37-9.68C7.82 6.516 10.149 5.359 12 4.19c1.851 1.168 4.18 2.325 6.99 3.479-.12 4.16-1.364 7.363-3.37 9.68C14.25 18.932 12.468 20 12 20z" fill="currentColor"/>
</symbol>
<symbol id="tag" viewBox="0 0 24 24"><path fill-rule="evenodd" clip-rule="evenodd" d="M10.367 3.732A2.5 2.5 0 0 1 12.136 3H19.5A1.5 1.5 0 0 1 21 4.5v7.364a2.5 2.5 0 0 1-.733 1.768l-7.69 7.69a2.5 2.5 0 0 1-3.535 0l-6.364-6.364a2.5 2.5 0 0 1 0-3.536l7.69-7.69zM12.136 5a.5.5 0 0 0-.353.146l-7.69 7.69a.5.5 0 0 0 0 .708l6.364 6.364a.5.5 0 0 0 .707 0l7.69-7.69a.5.5 0 0 0 .147-.354V5h-6.865zm2.853 2C13.878 7 13 7.832 13 8.988c0 1.157.878 2.012 1.988 2.012C16.121 11 17 10.145 17 8.988 17 7.832 16.12 7 14.988 7z" fill="currentColor"/>
</symbol>
<symbol id="textbook" viewBox="0 0 24 24"><path fill-rule="evenodd" clip-rule="evenodd" d="M7 8a1 1 0 0 1 1-1h8a1 1 0 1 1 0 2H8a1 1 0 0 1-1-1zm0 4a1 1 0 0 1 1-1h8a1 1 0 0 1 0 2H8a1 1 0 0 1-1-1zm1 3a1 1 0 0 0 0 2h3a1 1 0 0 0 0-2H8z" fill="currentColor"/><path d="M4 16.8V7.2c0-1.12 0-1.68.22-2.1a2 2 0 0 1 .87-.88C5.52 4 6.08 4 7.2 4h9.6c1.12 0 1.68 0 2.1.22a2 2 0 0 1 .88.87c.22.43.22.99.22 2.11v9.6c0 1.12 0 1.68-.22 2.1a2 2 0 0 1-.87.88c-.43.22-.99.22-2.11.22H7.2c-1.12 0-1.68 0-2.1-.22a2 2 0 0 1-.88-.87C4 18.48 4 17.92 4 16.8z" stroke="currentColor" stroke-width="2"/>
</symbol>
<symbol id="trash" viewBox="0 0 24 24"><path fill-rule="evenodd" clip-rule="evenodd" d="M12.663 1.5h-1.326c-1.069 0-1.49.09-1.921.27-.432.181-.792.453-1.084.82-.292.365-.493.746-.784 1.774L7.368 5H5a1 1 0 0 0 0 2h.5l.844 12.666A2.5 2.5 0 0 0 8.84 22h6.322a2.5 2.5 0 0 0 2.495-2.334L18.5 7.001V7h.5a1 1 0 1 0 0-2h-2.367l-.18-.636c-.292-1.028-.493-1.409-.785-1.775a2.694 2.694 0 0 0-1.084-.819c-.431-.18-.852-.27-1.92-.27zm1.89 3.5-.025-.09c-.203-.717-.29-.905-.424-1.074a.696.696 0 0 0-.292-.221c-.2-.084-.404-.115-1.149-.115h-1.326c-.745 0-.95.031-1.149.115a.696.696 0 0 0-.292.221c-.135.169-.221.357-.424 1.074L9.446 5h5.108zm1.943 2H7.505l.835 12.533a.5.5 0 0 0 .499.467h6.322a.5.5 0 0 0 .499-.467L16.496 7zM9.4 9.63a.85.85 0 0 1 1.699-.059l.272 7.795a.85.85 0 1 1-1.7.06L9.4 9.63zm4.381-.879a.85.85 0 0 0-.88.82l-.271 7.795a.85.85 0 1 0 1.699.06L14.6 9.63a.85.85 0 0 0-.82-.88z" fill="currentColor"/>
</symbol></svg>